<svg width="90" height="17" viewBox="0 0 90 17" fill="none" xmlns="http://www.w3.org/2000/svg">
<path d="M9.002 0L11.128 6.494H18.005L12.441 10.506L14.566 17L9.002 12.987L3.438 17L5.564 10.506L0 6.494H6.878L9.002 0Z" fill="#81B3D2"/>
<path d="M33.002 0L35.128 6.494H42.005L36.441 10.506L38.566 17L33.002 12.987L27.438 17L29.564 10.506L24 6.494H30.878L33.002 0Z" fill="#81B3D2"/>
<path d="M57.002 0L59.128 6.494H66.005L60.441 10.506L62.566 17L57.002 12.987L51.438 17L53.564 10.506L48 6.494H54.878L57.002 0Z" fill="#81B3D2"/>
<path d="M80.002 0L82.128 6.494H89.005L83.441 10.506L85.566 17L80.002 12.987L74.438 17L76.564 10.506L71 6.494H77.878L80.002 0Z" fill="#81B3D2"/>
</svg>
